<svg xmlns="http://www.w3.org/2000/svg" viewBox="0 0 410 404" fill="none">
  <path fill="#41D1FF" d="M399.641 59.524 215.33 388.144c-4.84 8.436-16.953 8.466-21.84.056L9.36067 59.525c-5.21574-9.057 2.71145-19.88 12.68933-18.186l183.48 31.315a12 12 0 0 0 13.79-9.58l13.85-75.19c1.828-9.922 15.773-11.25 19.612-1.937l45.21 106.789a12 12 0 0 0 14.33 6.728l69.204-19.402c9.862-2.763 17.777 7.629 12.595 16.672Z"/>
  <path fill="#BD34FE" d="M292.965 1.574 157.622 28.451a6 6 0 0 0-4.854 7.004l34.405 198.222c1.325 7.636 11.727 8.805 15.122 1.73l21.968-45.948c1.32-2.759 4.887-3.326 7.018-1.156l62.107 62.613c5.184 5.227 14.201 2.32 15.312-5.066l32.655-214.272c1.03-6.731-4.807-12.438-11.638-11.033Z"/>
  <path fill="url(#paint0_linear)" d="M300.872 92.919 140.46 271.059a6 6 0 0 1-10.216-3.725l-8.97-141.386a6 6 0 0 1 4.716-6.176l171.037-30.08a6 6 0 0 1 6.845 7.227Z"/>
  <defs>
    <linearGradient id="paint0_linear" x1="6.00017" x2="235.912" y1="32.2482" y2="344.582" gradientUnits="userSpaceOnUse">
      <stop stop-color="#FFEA83"/>
      <stop offset="0.083" stop-color="#FFDD35"/>
      <stop offset="1" stop-color="#FFA800"/>
    </linearGradient>
  </defs>
</svg>
